<?xml version="1.0" encoding="utf-8" ?>
<svg xmlns="http://www.w3.org/2000/svg" width="512" height="512">
	<defs>
		<linearGradient id="gradient_0" gradientUnits="userSpaceOnUse" x1="254.80853" y1="12.396833" x2="257.19525"
						y2="496.37042">
			<stop offset="0" stop-color="#FF94CE"/>
			<stop offset="1" stop-color="#85B2EE"/>
		</linearGradient>
	</defs>
	<path fill="url(#gradient_0)"
		  d="M64.0407 473.017C34.8873 452.489 16.0671 417.652 13.9698 382.105L13.7675 145.255C13.7728 134.396 13.9016 123.585 15.629 112.833C23.8767 61.4943 66.7865 22.9627 116.917 14.4376C126.132 12.8706 135.242 13.0271 144.551 13.0241L369.561 13.0504C398.912 13.0774 421.903 18.1193 446.719 35.7381C477.681 57.7214 496.408 92.4783 498.275 130.158L498.365 364.447C498.363 370.472 498.604 376.635 498.239 382.647C496.117 417.609 479.239 451.524 450.832 472.361C449.152 473.594 447.326 475.132 445.483 476.068C427.497 488.514 410.581 492.723 389.697 495.627L389.032 495.718C384.154 496.241 378.99 495.995 374.083 495.998L127.117 495.794C104.836 494.491 81.6128 486.842 64.0407 473.017Z"/>
	<path fill="white"
		  d="M149.163 121.344L207.809 121.341C210.551 121.347 215.035 120.907 217.547 122.001C228.093 126.593 230.891 136.74 235.23 146.582L250.09 178.446C252.113 182.583 253.814 187.11 256.407 190.924L281.579 136.694C285.95 126.741 290.192 121.371 301.476 121.336L355.399 121.338C359.394 121.345 363.526 121.132 367.5 121.5C376.028 122.289 382.466 129.987 382.781 138.423L382.836 365.473C382.778 375.714 377.483 383.962 366.814 384.449L318.54 384.526C307.871 384.515 301.423 385.041 295.936 374.015C294.218 369.08 294.295 365.258 294.285 360.033L294.098 288.446C293.133 290.121 292.125 291.799 291.245 293.517L272.718 329.758C267.846 337.9 262.044 341.942 252.021 340.436C245.611 339.473 242.435 334.39 239.478 329.191L223.948 299.01C222.526 296.239 221.104 292.606 219.218 290.162L218.171 288.776C217.745 290.328 217.932 292.409 217.928 294.035L217.922 362.389C217.899 377.254 213.871 384.435 198.611 384.487L151.435 384.524C142.55 384.514 133.469 384.291 130.116 373.514L129.999 373.125C129.495 371.482 129.215 369.94 129.142 368.227L129.015 146.102C128.952 135.579 129.18 124.28 142.869 121.693C144.875 121.314 147.12 121.401 149.163 121.344Z"/>
</svg>
